<svg width="55" height="53" viewBox="0 0 55 53" fill="none" xmlns="http://www.w3.org/2000/svg">
<ellipse cx="27.5" cy="26.5" rx="27.5" ry="26.5" fill="#FFFC00"/>
<path d="M26.8333 27.0833V30.3333C26.8333 30.6402 26.9453 30.8977 27.1693 31.1057C27.3933 31.3137 27.6701 31.4173 27.9999 31.4166C28.3305 31.4166 28.6078 31.3126 28.8318 31.1046C29.0558 30.8966 29.1674 30.6395 29.1666 30.3333V27.0833H32.6666C32.9971 27.0833 33.2744 26.9793 33.4984 26.7713C33.7224 26.5633 33.834 26.3062 33.8333 26C33.8333 25.693 33.7213 25.4359 33.4973 25.2286C33.2733 25.0213 32.9964 24.9173 32.6666 24.9166H29.1666V21.6666C29.1666 21.3597 29.0546 21.1026 28.8306 20.8953C28.6066 20.688 28.3297 20.584 27.9999 20.5833C27.6694 20.5833 27.3925 20.6873 27.1693 20.8953C26.946 21.1033 26.834 21.3604 26.8333 21.6666V24.9166H23.3333C23.0027 24.9166 22.7258 25.0206 22.5026 25.2286C22.2794 25.4366 22.1674 25.6937 22.1666 26C22.1666 26.3069 22.2786 26.5644 22.5026 26.7724C22.7266 26.9804 23.0035 27.084 23.3333 27.0833H26.8333ZM27.9999 36.8333C26.386 36.8333 24.8694 36.5487 23.4499 35.9796C22.0305 35.4105 20.7958 34.6388 19.7458 33.6645C18.6958 32.6895 17.8647 31.543 17.2526 30.225C16.6405 28.9069 16.334 27.4986 16.3333 26C16.3333 24.5013 16.6397 23.093 17.2526 21.775C17.8655 20.4569 18.6965 19.3104 19.7458 18.3354C20.7958 17.3604 22.0305 16.5887 23.4499 16.0203C24.8694 15.4519 26.386 15.1673 27.9999 15.1666C29.6138 15.1666 31.1305 15.4512 32.5499 16.0203C33.9694 16.5894 35.2041 17.3611 36.2541 18.3354C37.3041 19.3104 38.1355 20.4569 38.7484 21.775C39.3613 23.093 39.6674 24.5013 39.6666 26C39.6666 27.4986 39.3601 28.9069 38.7473 30.225C38.1344 31.543 37.3033 32.6895 36.2541 33.6645C35.2041 34.6395 33.9694 35.4116 32.5499 35.9807C31.1305 36.5498 29.6138 36.834 27.9999 36.8333Z" fill="black"/>
</svg>
