<svg width="55" height="53" viewBox="0 0 55 53" fill="none" xmlns="http://www.w3.org/2000/svg">
<ellipse cx="27.5" cy="26.5" rx="27.5" ry="26.5" fill="#FFFC00"/>
<path d="M33.6474 18.9113C34.2244 18.917 34.7576 19.2094 34.963 19.6933C35.4178 20.7609 35.6444 21.8955 35.631 23.0377C35.6129 25.0831 34.8257 27.0622 33.3966 28.655C33.1892 28.8866 32.8863 29.026 32.577 29.1301C31.9325 29.3465 31.3621 29.7437 30.9197 30.2383C29.8531 31.4331 28.5197 32.4148 27.0048 33.1206C26.0183 33.5782 25.1597 34.2659 24.7386 35.1854C24.4429 35.8296 24.2872 36.5187 24.28 37.2156L24.2719 37.9858C24.2693 38.2279 24.1596 38.4589 23.9669 38.6282C23.7741 38.7975 23.5141 38.8911 23.2441 38.8884C22.4339 38.8805 21.66 38.5845 21.0926 38.0655C20.5251 37.5464 20.2107 36.8469 20.2183 36.1208C20.2331 34.7191 20.6001 33.3951 21.2412 32.2149C21.6095 31.5394 21.1124 30.6535 20.2734 30.6453L16.0295 30.6038C14.6366 30.5902 13.3979 29.7336 13.263 28.4898C13.2073 27.9757 13.1816 27.4547 13.1872 26.9254C13.2167 23.5958 14.5202 20.3778 16.88 17.8092C17.4129 17.2278 18.2293 16.9352 19.0683 16.9434L24.5205 16.9967C25.177 17.0034 25.8282 17.1043 26.4494 17.2955L30.6636 18.6023C31.2847 18.794 31.936 18.8949 32.5926 18.901L33.6474 18.9113ZM40.5556 28.4378C41.3217 26.7408 41.7236 24.929 41.7402 23.0975C41.7572 21.6516 41.5345 20.2112 41.0793 18.8233C40.7372 17.7856 39.6239 17.1444 38.4169 17.1326L37.187 17.1206C36.5828 17.1147 36.2031 17.717 36.4654 18.2063C37.2775 19.7194 37.6893 21.3796 37.6688 23.0577C37.6469 25.1359 36.9801 27.0728 35.8413 28.7179C35.5035 29.205 35.867 29.8851 36.5078 29.8914L37.9346 29.9053C39.0641 29.9164 40.1303 29.3755 40.5556 28.4378Z" fill="black"/>
</svg>
