<svg width="54" height="53" viewBox="0 0 54 53" fill="none" xmlns="http://www.w3.org/2000/svg">
<ellipse cx="27" cy="26.5" rx="27" ry="26.5" fill="#FFFC00"/>
<path d="M19.6785 33.3541C19.1295 33.3541 18.6193 33.069 18.4191 32.5905C17.9757 31.5347 17.7487 30.4103 17.75 29.276C17.7467 27.2449 18.4757 25.2721 19.8193 23.6766C20.0143 23.4446 20.3011 23.3032 20.5943 23.1969C21.2052 22.9758 21.7438 22.5758 22.1598 22.0804C23.1625 20.8837 24.4211 19.896 25.8552 19.1804C26.7891 18.7164 27.599 18.0252 27.9903 17.1081C28.2652 16.4656 28.4064 15.7798 28.4063 15.0878V14.3229C28.4063 14.0825 28.5083 13.852 28.69 13.6821C28.8717 13.5121 29.1181 13.4166 29.375 13.4166C30.1458 13.4166 30.885 13.7031 31.43 14.2129C31.9751 14.7228 32.2813 15.4143 32.2813 16.1354C32.2813 17.5274 31.9454 18.8457 31.3474 20.0238C31.0038 20.698 31.4856 21.5729 32.2838 21.5729H36.3216C37.6468 21.5729 38.8339 22.4115 38.9747 23.6452C39.0328 24.1551 39.0625 24.6723 39.0625 25.1979C39.0679 28.5043 37.86 31.7123 35.6409 34.2858C35.1397 34.8682 34.366 35.1666 33.5678 35.1666H28.3804C27.7558 35.1664 27.1353 35.0725 26.5424 34.8887L22.5201 33.632C21.9274 33.4476 21.3068 33.3538 20.6821 33.3541H19.6785ZM13.0109 23.9618C12.2991 25.6543 11.9349 27.4572 11.9375 29.276C11.9359 30.7119 12.1622 32.14 12.6092 33.5136C12.945 34.5407 14.0106 35.1666 15.1589 35.1666H16.3292C16.904 35.1666 17.2592 34.5649 17.0047 34.0815C16.217 32.5869 15.8086 30.9424 15.8112 29.276C15.8112 27.2122 16.4261 25.2825 17.493 23.6379C17.8094 23.151 17.4568 22.4791 16.8471 22.4791H15.4896C14.4149 22.4791 13.4061 23.0265 13.0109 23.9618Z" fill="black"/>
</svg>
