<svg width="54" height="53" viewBox="0 0 54 53" fill="none" xmlns="http://www.w3.org/2000/svg">
<ellipse cx="27" cy="26.5" rx="27" ry="26.5" fill="#FFFC00"/>
<path d="M27.4999 33.9792C27.9839 33.9792 28.39 33.8312 28.718 33.5352C29.046 33.2392 29.2094 32.8733 29.2083 32.4375H25.7916C25.7916 32.8743 25.9556 33.2407 26.2836 33.5367C26.6116 33.8327 27.017 33.9802 27.4999 33.9792ZM21.5208 31.6667H33.4791C33.7069 31.6667 33.9062 31.5896 34.077 31.4355C34.2478 31.2813 34.3333 31.1014 34.3333 30.8959C34.3333 30.6903 34.2478 30.5105 34.077 30.3563C33.9062 30.2021 33.7069 30.125 33.4791 30.125H32.6249V26.5021C32.6249 25.3716 32.2833 24.3438 31.5999 23.4188C30.9166 22.4938 29.977 21.9028 28.7812 21.6459V21.2605C28.7812 20.9264 28.6599 20.6505 28.4173 20.4326C28.1747 20.2147 27.8689 20.1052 27.4999 20.1042C27.1298 20.1042 26.824 20.2137 26.5825 20.4326C26.3411 20.6515 26.2198 20.9275 26.2187 21.2605V21.6459C25.0228 21.9028 24.0833 22.4938 23.3999 23.4188C22.7166 24.3438 22.3749 25.3716 22.3749 26.5021V30.125H21.5208C21.293 30.125 21.0937 30.2021 20.9228 30.3563C20.752 30.5105 20.6666 30.6903 20.6666 30.8959C20.6666 31.1014 20.752 31.2813 20.9228 31.4355C21.0937 31.5896 21.293 31.6667 21.5208 31.6667ZM13.8333 36.2917V22.4167C13.8333 21.9285 13.9545 21.466 14.1971 21.0292C14.4397 20.5924 14.774 20.2327 15.1999 19.95L25.4499 13.0125C25.7631 12.807 26.0905 12.6528 26.4322 12.55C26.7739 12.4473 27.1298 12.3959 27.4999 12.3959C27.8701 12.3959 28.226 12.4473 28.5676 12.55C28.9093 12.6528 29.2367 12.807 29.5499 13.0125L39.7999 19.95C40.227 20.2327 40.5618 20.5924 40.8044 21.0292C41.047 21.466 41.1677 21.9285 41.1666 22.4167V36.2917C41.1666 37.1396 40.8318 37.8657 40.1621 38.4701C39.4924 39.0744 38.6884 39.3761 37.7499 39.375H17.2499C16.3103 39.375 15.5063 39.0734 14.8378 38.4701C14.1692 37.8668 13.8344 37.1407 13.8333 36.2917Z" fill="black"/>
</svg>
