<svg width="54" height="53" viewBox="0 0 54 53" fill="none" xmlns="http://www.w3.org/2000/svg">
<ellipse cx="27" cy="26.5" rx="27" ry="26.5" fill="#FFFC00"/>
<path d="M27.5 15.25C33.7213 15.25 38.75 20.2787 38.75 26.5C38.75 32.7213 33.7213 37.75 27.5 37.75C21.2787 37.75 16.25 32.7213 16.25 26.5C16.25 20.2787 21.2787 15.25 27.5 15.25ZM33.125 20.875H30.3125L29.1875 19.75H25.8125L24.6875 20.875H21.875V23.125H33.125V20.875ZM24.125 33.25H30.875C31.1734 33.25 31.4595 33.1315 31.6705 32.9205C31.8815 32.7095 32 32.4234 32 32.125V24.25H23V32.125C23 32.4234 23.1185 32.7095 23.3295 32.9205C23.5405 33.1315 23.8266 33.25 24.125 33.25Z" fill="black"/>
</svg>
